<mxfile host="app.diagrams.net" modified="2020-09-22T17:41:04.732Z" agent="5.0 (X11; Linux x86_64) AppleWebKit/537.36 (KHTML, like Gecko) Chrome/87.0.4268.0 Safari/537.36" etag="hHHjJ7XSHRRxkHBJxj0T" version="13.7.3" type="github">
  <diagram id="6a731a19-8d31-9384-78a2-239565b7b9f0" name="Page-1">
    <mxGraphModel dx="807" dy="1103" grid="1" gridSize="10" guides="1" tooltips="1" connect="1" arrows="1" fold="1" page="1" pageScale="1" pageWidth="1169" pageHeight="827" background="#ffffff" math="0" shadow="0">
      <root>
        <mxCell id="0" />
        <mxCell id="1" parent="0" />
        <mxCell id="nKjWOkiUqiFMKtEfcXU3-1584" value="" style="edgeStyle=none;orthogonalLoop=1;jettySize=auto;html=1;endArrow=none;strokeColor=#F08E81;strokeWidth=3;fontColor=#FFFFFF;" parent="1" source="nKjWOkiUqiFMKtEfcXU3-1556" target="nKjWOkiUqiFMKtEfcXU3-1583" edge="1">
          <mxGeometry relative="1" as="geometry" />
        </mxCell>
        <mxCell id="vXRq4L5JsFHw3zMqs7hk-1559" value="" style="edgeStyle=none;orthogonalLoop=1;jettySize=auto;html=1;endArrow=none;strokeColor=#F08E81;strokeWidth=3;fontColor=#FFFFFF;" parent="1" source="1352" target="vXRq4L5JsFHw3zMqs7hk-1558" edge="1">
          <mxGeometry relative="1" as="geometry">
            <mxPoint x="1606.2787250641109" y="1292.5878428937776" as="sourcePoint" />
          </mxGeometry>
        </mxCell>
        <mxCell id="HAPoIs7WftZeYswxPthf-1596" value="" style="edgeStyle=none;orthogonalLoop=1;jettySize=auto;html=1;endArrow=none;strokeColor=#F5AF58;strokeWidth=3;fontColor=#FFFFFF;" parent="1" source="HAPoIs7WftZeYswxPthf-1572" target="HAPoIs7WftZeYswxPthf-1595" edge="1">
          <mxGeometry relative="1" as="geometry" />
        </mxCell>
        <mxCell id="HAPoIs7WftZeYswxPthf-1592" value="" style="edgeStyle=none;orthogonalLoop=1;jettySize=auto;html=1;endArrow=none;strokeColor=#F5AF58;strokeWidth=3;fontColor=#FFFFFF;" parent="1" source="HAPoIs7WftZeYswxPthf-1572" target="HAPoIs7WftZeYswxPthf-1591" edge="1">
          <mxGeometry relative="1" as="geometry" />
        </mxCell>
        <mxCell id="HAPoIs7WftZeYswxPthf-1583" style="edgeStyle=none;orthogonalLoop=1;jettySize=auto;html=1;endArrow=none;strokeColor=#F5AF58;strokeWidth=3;fontColor=#FFFFFF;exitX=0.5;exitY=0.5;exitDx=0;exitDy=0;exitPerimeter=0;" parent="1" source="HAPoIs7WftZeYswxPthf-1581" target="HAPoIs7WftZeYswxPthf-1572" edge="1">
          <mxGeometry relative="1" as="geometry" />
        </mxCell>
        <mxCell id="HAPoIs7WftZeYswxPthf-1575" value="" style="edgeStyle=none;orthogonalLoop=1;jettySize=auto;html=1;endArrow=none;strokeColor=#F5AF58;strokeWidth=3;fontColor=#FFFFFF;" parent="1" source="1396" target="HAPoIs7WftZeYswxPthf-1574" edge="1">
          <mxGeometry relative="1" as="geometry" />
        </mxCell>
        <mxCell id="HAPoIs7WftZeYswxPthf-1556" value="" style="edgeStyle=none;orthogonalLoop=1;jettySize=auto;html=1;endArrow=none;strokeColor=#F5AF58;strokeWidth=3;fontColor=#FFFFFF;" parent="1" source="1396" target="HAPoIs7WftZeYswxPthf-1555" edge="1">
          <mxGeometry relative="1" as="geometry" />
        </mxCell>
        <mxCell id="1351" value="&lt;div style=&quot;font-size: 21px&quot;&gt;&lt;h2&gt;Chapter 1&lt;/h2&gt;&lt;h2&gt;Concentration of sums of independent&amp;nbsp; RVs&lt;/h2&gt;&lt;/div&gt;" style="ellipse;whiteSpace=wrap;html=1;shadow=0;fontFamily=Helvetica;fontSize=20;fontColor=#FFFFFF;align=center;strokeWidth=3;fillColor=#F08705;strokeColor=none;gradientColor=none;rounded=1;" parent="1" vertex="1">
          <mxGeometry x="996.25" y="230" width="250" height="250" as="geometry" />
        </mxCell>
        <mxCell id="1352" value="&lt;font style=&quot;font-size: 31px&quot;&gt;&lt;b&gt;Chapter 2&lt;br&gt;Random matrices&lt;/b&gt;&lt;/font&gt;" style="ellipse;whiteSpace=wrap;html=1;shadow=0;fontFamily=Helvetica;fontSize=20;fontColor=#FFFFFF;align=center;strokeWidth=3;strokeColor=none;rounded=1;fillColor=#F08E81;" parent="1" vertex="1">
          <mxGeometry x="1066.5" y="1153" width="175" height="175" as="geometry" />
        </mxCell>
        <mxCell id="1357" value="&lt;h3&gt;Section 1.1 Fair coin toss&lt;/h3&gt;" style="fillColor=#f5af58;strokeColor=none;strokeWidth=3;shadow=0;html=1;fontColor=#FFFFFF;rounded=1;" parent="1" vertex="1">
          <mxGeometry x="695.37" y="642.25" width="190" height="50" as="geometry" />
        </mxCell>
        <mxCell id="1360" style="endArrow=none;strokeWidth=6;strokeColor=#f08705;html=1;" parent="1" source="1515" target="1351" edge="1">
          <mxGeometry relative="1" as="geometry" />
        </mxCell>
        <mxCell id="1361" style="endArrow=none;strokeWidth=6;html=1;strokeColor=#F08E81;" parent="1" source="1515" target="1352" edge="1">
          <mxGeometry relative="1" as="geometry" />
        </mxCell>
        <mxCell id="1388" value="&lt;p&gt;&lt;i&gt;Prop 1.1.1&lt;/i&gt;&amp;nbsp;Tails of the normal distribution&lt;/p&gt;" style="fillColor=#f5af58;strokeColor=none;strokeWidth=3;shadow=0;html=1;fontColor=#FFFFFF;rounded=1;" parent="1" vertex="1">
          <mxGeometry x="577.25" y="600" width="237.38" height="20" as="geometry" />
        </mxCell>
        <mxCell id="1390" value="&lt;h3&gt;Section 1.2 Hoeffding&#39;s inequality&lt;/h3&gt;" style="fillColor=#f5af58;strokeColor=none;strokeWidth=3;shadow=0;html=1;fontColor=#FFFFFF;rounded=1;" parent="1" vertex="1">
          <mxGeometry x="414.75" y="295.5" width="250" height="50" as="geometry" />
        </mxCell>
        <mxCell id="dRpMAYWNb-EyF7LgT5x5-1581" value="" style="edgeStyle=none;orthogonalLoop=1;jettySize=auto;html=1;endArrow=none;strokeColor=#F5AF58;strokeWidth=3;fontColor=#FFFFFF;" parent="1" source="1395" target="dRpMAYWNb-EyF7LgT5x5-1580" edge="1">
          <mxGeometry relative="1" as="geometry" />
        </mxCell>
        <mxCell id="1391" value="&lt;i&gt;Def 1.2.1&amp;nbsp;&lt;/i&gt;Symmetric Bernoulli distribution" style="fillColor=#f5af58;strokeColor=none;strokeWidth=3;shadow=0;html=1;fontColor=#FFFFFF;rounded=1;" parent="1" vertex="1">
          <mxGeometry x="381.75" y="250" width="249.69" height="20" as="geometry" />
        </mxCell>
        <mxCell id="MSrnEf6_SX1GNY-UOXhY-1545" value="" style="edgeStyle=none;orthogonalLoop=1;jettySize=auto;html=1;endArrow=none;strokeColor=#F5AF58;strokeWidth=3;fontColor=#FFFFFF;" parent="1" source="dRpMAYWNb-EyF7LgT5x5-1580" target="MSrnEf6_SX1GNY-UOXhY-1542" edge="1">
          <mxGeometry relative="1" as="geometry" />
        </mxCell>
        <mxCell id="MSrnEf6_SX1GNY-UOXhY-1548" value="" style="edgeStyle=none;orthogonalLoop=1;jettySize=auto;html=1;endArrow=none;strokeColor=#F5AF58;strokeWidth=3;fontColor=#FFFFFF;" parent="1" source="dRpMAYWNb-EyF7LgT5x5-1580" target="MSrnEf6_SX1GNY-UOXhY-1547" edge="1">
          <mxGeometry relative="1" as="geometry" />
        </mxCell>
        <mxCell id="dRpMAYWNb-EyF7LgT5x5-1580" value="Bernoulli RVs" style="fillColor=#f5af58;strokeColor=none;strokeWidth=3;shadow=0;html=1;fontColor=#FFFFFF;rounded=1;" parent="1" vertex="1">
          <mxGeometry x="680.81" y="77" width="90" height="20" as="geometry" />
        </mxCell>
        <mxCell id="MSrnEf6_SX1GNY-UOXhY-1550" value="" style="edgeStyle=none;orthogonalLoop=1;jettySize=auto;html=1;endArrow=none;strokeColor=#F5AF58;strokeWidth=3;fontColor=#FFFFFF;" parent="1" source="1395" target="MSrnEf6_SX1GNY-UOXhY-1549" edge="1">
          <mxGeometry relative="1" as="geometry" />
        </mxCell>
        <mxCell id="MSrnEf6_SX1GNY-UOXhY-1547" value="&lt;i&gt;Thm 1.3.4&amp;nbsp;&lt;/i&gt;small deviations" style="fillColor=#f5af58;strokeColor=none;strokeWidth=3;shadow=0;html=1;fontColor=#FFFFFF;rounded=1;" parent="1" vertex="1">
          <mxGeometry x="796.81" y="47" width="163.19" height="20" as="geometry" />
        </mxCell>
        <mxCell id="MSrnEf6_SX1GNY-UOXhY-1553" value="" style="edgeStyle=none;orthogonalLoop=1;jettySize=auto;html=1;endArrow=none;strokeColor=#F5AF58;strokeWidth=3;fontColor=#FFFFFF;" parent="1" source="1395" target="MSrnEf6_SX1GNY-UOXhY-1552" edge="1">
          <mxGeometry relative="1" as="geometry" />
        </mxCell>
        <mxCell id="MSrnEf6_SX1GNY-UOXhY-1549" value="&lt;i&gt;Thm 1.3.5&amp;nbsp;&lt;/i&gt;Poisson limit theorem" style="fillColor=#f5af58;strokeColor=none;strokeWidth=3;shadow=0;html=1;fontColor=#FFFFFF;rounded=1;" parent="1" vertex="1">
          <mxGeometry x="906.81" y="114.5" width="193.19" height="20" as="geometry" />
        </mxCell>
        <mxCell id="MSrnEf6_SX1GNY-UOXhY-1552" value="&lt;i&gt;Cor 1.3.6&amp;nbsp;&lt;/i&gt;Poisson tails and near the mean" style="fillColor=#f5af58;strokeColor=none;strokeWidth=3;shadow=0;html=1;fontColor=#FFFFFF;rounded=1;" parent="1" vertex="1">
          <mxGeometry x="921.81" y="180" width="248.19" height="20" as="geometry" />
        </mxCell>
        <mxCell id="MSrnEf6_SX1GNY-UOXhY-1544" value="&lt;i&gt;Thm 1.3.3&amp;nbsp;&lt;/i&gt;lower tails" style="fillColor=#f5af58;strokeColor=none;strokeWidth=3;shadow=0;html=1;fontColor=#FFFFFF;rounded=1;" parent="1" vertex="1">
          <mxGeometry x="610" y="20" width="140" height="20" as="geometry" />
        </mxCell>
        <mxCell id="MSrnEf6_SX1GNY-UOXhY-1542" value="&lt;div&gt;&lt;i&gt;Thm 1.3.1&amp;nbsp;&lt;/i&gt;upper tails&lt;/div&gt;" style="fillColor=#f5af58;strokeColor=none;strokeWidth=3;shadow=0;html=1;fontColor=#FFFFFF;rounded=1;" parent="1" vertex="1">
          <mxGeometry x="490" y="60" width="131.81" height="20" as="geometry" />
        </mxCell>
        <mxCell id="dRpMAYWNb-EyF7LgT5x5-1563" value="" style="edgeStyle=none;orthogonalLoop=1;jettySize=auto;html=1;endArrow=none;strokeColor=#F5AF58;strokeWidth=3;fontColor=#FFFFFF;" parent="1" source="dRpMAYWNb-EyF7LgT5x5-1555" target="dRpMAYWNb-EyF7LgT5x5-1573" edge="1">
          <mxGeometry relative="1" as="geometry" />
        </mxCell>
        <mxCell id="dRpMAYWNb-EyF7LgT5x5-1567" value="" style="edgeStyle=none;orthogonalLoop=1;jettySize=auto;html=1;endArrow=none;strokeColor=#F5AF58;strokeWidth=3;fontColor=#FFFFFF;" parent="1" source="dRpMAYWNb-EyF7LgT5x5-1555" target="dRpMAYWNb-EyF7LgT5x5-1566" edge="1">
          <mxGeometry relative="1" as="geometry" />
        </mxCell>
        <mxCell id="dRpMAYWNb-EyF7LgT5x5-1555" value="&lt;div&gt;&lt;i&gt;Thm 1.2&lt;/i&gt;&lt;i&gt;.2&amp;nbsp;&lt;/i&gt;&lt;span&gt;Hoeffding&#39;s inequalities&lt;/span&gt;&lt;/div&gt;" style="fillColor=#f5af58;strokeColor=none;strokeWidth=3;shadow=0;html=1;fontColor=#FFFFFF;rounded=1;" parent="1" vertex="1">
          <mxGeometry x="425.75" y="374" width="210.19" height="20" as="geometry" />
        </mxCell>
        <mxCell id="dRpMAYWNb-EyF7LgT5x5-1566" value="&lt;div&gt;&lt;i&gt;Thm 1.2.4&amp;nbsp;&lt;/i&gt;general bounded RVs&lt;/div&gt;" style="fillColor=#f5af58;strokeColor=none;strokeWidth=3;shadow=0;html=1;fontColor=#FFFFFF;rounded=1;" parent="1" vertex="1">
          <mxGeometry x="489.05999999999995" y="454.75" width="208.19" height="20" as="geometry" />
        </mxCell>
        <mxCell id="dRpMAYWNb-EyF7LgT5x5-1569" value="" style="edgeStyle=none;orthogonalLoop=1;jettySize=auto;html=1;endArrow=none;strokeColor=#F5AF58;strokeWidth=3;fontColor=#FFFFFF;" parent="1" source="dRpMAYWNb-EyF7LgT5x5-1562" target="dRpMAYWNb-EyF7LgT5x5-1568" edge="1">
          <mxGeometry relative="1" as="geometry" />
        </mxCell>
        <mxCell id="dRpMAYWNb-EyF7LgT5x5-1571" value="" style="edgeStyle=none;orthogonalLoop=1;jettySize=auto;html=1;endArrow=none;strokeColor=#F5AF58;strokeWidth=3;fontColor=#FFFFFF;" parent="1" source="dRpMAYWNb-EyF7LgT5x5-1562" target="dRpMAYWNb-EyF7LgT5x5-1570" edge="1">
          <mxGeometry relative="1" as="geometry" />
        </mxCell>
        <mxCell id="dRpMAYWNb-EyF7LgT5x5-1574" value="" style="edgeStyle=none;orthogonalLoop=1;jettySize=auto;html=1;endArrow=none;strokeColor=#F5AF58;strokeWidth=3;fontColor=#FFFFFF;" parent="1" source="dRpMAYWNb-EyF7LgT5x5-1562" target="dRpMAYWNb-EyF7LgT5x5-1573" edge="1">
          <mxGeometry relative="1" as="geometry">
            <mxPoint x="319.25" y="466.4999999999999" as="targetPoint" />
          </mxGeometry>
        </mxCell>
        <mxCell id="dRpMAYWNb-EyF7LgT5x5-1562" value="&lt;div&gt;&lt;i&gt;Def 1.2.1&amp;nbsp;&lt;/i&gt;symmetric Bernoulli RVs&lt;/div&gt;" style="fillColor=#f5af58;strokeColor=none;strokeWidth=3;shadow=0;html=1;fontColor=#FFFFFF;rounded=1;" parent="1" vertex="1">
          <mxGeometry x="280.56" y="492.5" width="207.19" height="20" as="geometry" />
        </mxCell>
        <mxCell id="dRpMAYWNb-EyF7LgT5x5-1573" value="&lt;div&gt;Bernoulli RVs&lt;/div&gt;" style="fillColor=#f5af58;strokeColor=none;strokeWidth=3;shadow=0;html=1;fontColor=#FFFFFF;rounded=1;" parent="1" vertex="1">
          <mxGeometry x="337.75" y="420" width="150" height="20" as="geometry" />
        </mxCell>
        <mxCell id="dRpMAYWNb-EyF7LgT5x5-1570" value="&lt;i&gt;Thm 1.2.3&lt;/i&gt; two-sided" style="fillColor=#f5af58;strokeColor=none;strokeWidth=3;shadow=0;html=1;fontColor=#FFFFFF;rounded=1;" parent="1" vertex="1">
          <mxGeometry x="197.75" y="527.5" width="127.19" height="20" as="geometry" />
        </mxCell>
        <mxCell id="dRpMAYWNb-EyF7LgT5x5-1568" value="&lt;i&gt;Thm 1.2.2&amp;nbsp;&lt;/i&gt;one-sided" style="fillColor=#f5af58;strokeColor=none;strokeWidth=3;shadow=0;html=1;fontColor=#FFFFFF;rounded=1;" parent="1" vertex="1">
          <mxGeometry x="220.56" y="460" width="127.19" height="20" as="geometry" />
        </mxCell>
        <mxCell id="dRpMAYWNb-EyF7LgT5x5-1552" value="&lt;p&gt;&lt;i&gt;Thm 1.1.2&lt;/i&gt; Berry-Esseen central limit theorem&lt;/p&gt;" style="fillColor=#f5af58;strokeColor=none;strokeWidth=3;shadow=0;html=1;fontColor=#FFFFFF;rounded=1;" parent="1" vertex="1">
          <mxGeometry x="631.8100000000001" y="707.75" width="259.63" height="20" as="geometry" />
        </mxCell>
        <mxCell id="1395" value="&lt;h3&gt;Section 1.3 Chernoff&#39;s inequality&lt;/h3&gt;" style="fillColor=#f5af58;strokeColor=none;strokeWidth=3;shadow=0;html=1;fontColor=#FFFFFF;rounded=1;" parent="1" vertex="1">
          <mxGeometry x="621.81" y="119.5" width="250" height="50" as="geometry" />
        </mxCell>
        <mxCell id="HAPoIs7WftZeYswxPthf-1544" value="" style="edgeStyle=none;orthogonalLoop=1;jettySize=auto;html=1;endArrow=none;strokeColor=#F5AF58;strokeWidth=3;" parent="1" source="1398" target="HAPoIs7WftZeYswxPthf-1543" edge="1">
          <mxGeometry relative="1" as="geometry">
            <mxPoint x="2018.1766666666665" y="204.5" as="sourcePoint" />
          </mxGeometry>
        </mxCell>
        <mxCell id="HAPoIs7WftZeYswxPthf-1552" value="" style="edgeStyle=none;orthogonalLoop=1;jettySize=auto;html=1;endArrow=none;strokeColor=#F5AF58;strokeWidth=3;fontColor=#FFFFFF;" parent="1" source="1396" target="1397" edge="1">
          <mxGeometry relative="1" as="geometry" />
        </mxCell>
        <mxCell id="HAPoIs7WftZeYswxPthf-1554" value="" style="edgeStyle=none;orthogonalLoop=1;jettySize=auto;html=1;endArrow=none;strokeColor=#F5AF58;strokeWidth=3;fontColor=#FFFFFF;" parent="1" source="1396" target="1397" edge="1">
          <mxGeometry relative="1" as="geometry" />
        </mxCell>
        <mxCell id="HAPoIs7WftZeYswxPthf-1560" value="" style="edgeStyle=none;orthogonalLoop=1;jettySize=auto;html=1;endArrow=none;strokeColor=#F5AF58;strokeWidth=3;fontColor=#FFFFFF;" parent="1" source="1396" target="HAPoIs7WftZeYswxPthf-1559" edge="1">
          <mxGeometry relative="1" as="geometry" />
        </mxCell>
        <mxCell id="HAPoIs7WftZeYswxPthf-1573" value="" style="edgeStyle=none;orthogonalLoop=1;jettySize=auto;html=1;endArrow=none;strokeColor=#F5AF58;strokeWidth=3;fontColor=#FFFFFF;" parent="1" source="1351" target="HAPoIs7WftZeYswxPthf-1572" edge="1">
          <mxGeometry relative="1" as="geometry">
            <mxPoint x="1379.996875019966" y="384.0144806357714" as="sourcePoint" />
          </mxGeometry>
        </mxCell>
        <mxCell id="1396" value="&lt;h3&gt;Section 1.4 Sub-Gaussian distributions&lt;/h3&gt;" style="fillColor=#f5af58;strokeColor=none;strokeWidth=3;shadow=0;html=1;fontColor=#FFFFFF;rounded=1;" parent="1" vertex="1">
          <mxGeometry x="1575.4099999999999" y="160" width="280" height="50" as="geometry" />
        </mxCell>
        <mxCell id="MSrnEf6_SX1GNY-UOXhY-1555" value="" style="edgeStyle=none;orthogonalLoop=1;jettySize=auto;html=1;endArrow=none;strokeColor=#F5AF58;strokeWidth=3;fontColor=#FFFFFF;" parent="1" source="1398" target="MSrnEf6_SX1GNY-UOXhY-1554" edge="1">
          <mxGeometry relative="1" as="geometry" />
        </mxCell>
        <mxCell id="1397" value="&lt;i&gt;Lemma 1.4.1&lt;/i&gt; moments and moment generating function of standard normal distribution" style="fillColor=#f5af58;strokeColor=none;strokeWidth=3;shadow=0;html=1;fontColor=#FFFFFF;rounded=1;" parent="1" vertex="1">
          <mxGeometry x="1340" y="110" width="484.16" height="20" as="geometry" />
        </mxCell>
        <mxCell id="HAPoIs7WftZeYswxPthf-1586" value="" style="edgeStyle=none;orthogonalLoop=1;jettySize=auto;html=1;endArrow=none;strokeColor=#F5AF58;strokeWidth=3;fontColor=#FFFFFF;" parent="1" source="HAPoIs7WftZeYswxPthf-1572" target="HAPoIs7WftZeYswxPthf-1585" edge="1">
          <mxGeometry relative="1" as="geometry" />
        </mxCell>
        <mxCell id="HAPoIs7WftZeYswxPthf-1588" value="" style="edgeStyle=none;orthogonalLoop=1;jettySize=auto;html=1;endArrow=none;strokeColor=#F5AF58;strokeWidth=3;fontColor=#FFFFFF;" parent="1" source="1398" target="HAPoIs7WftZeYswxPthf-1587" edge="1">
          <mxGeometry relative="1" as="geometry" />
        </mxCell>
        <mxCell id="MSrnEf6_SX1GNY-UOXhY-1554" value="&lt;i&gt;&amp;nbsp;Def 1.4.3&amp;nbsp;&lt;/i&gt;Sub-Gaussian random variables" style="fillColor=#f5af58;strokeColor=none;strokeWidth=3;shadow=0;html=1;fontColor=#FFFFFF;rounded=1;" parent="1" vertex="1">
          <mxGeometry x="2035.33" y="290" width="250.4" height="20" as="geometry" />
        </mxCell>
        <mxCell id="1398" value="&lt;i&gt;Prop 1.4.2&lt;/i&gt;&amp;nbsp;Sub-Gaussian properties" style="fillColor=#f5af58;strokeColor=none;strokeWidth=3;shadow=0;html=1;fontColor=#FFFFFF;rounded=1;" parent="1" vertex="1">
          <mxGeometry x="1915.61" y="227" width="213.54" height="20" as="geometry" />
        </mxCell>
        <mxCell id="1399" value="" style="edgeStyle=none;endArrow=none;strokeWidth=3;strokeColor=#F5AF58;html=1;" parent="1" source="1351" target="1357" edge="1">
          <mxGeometry x="-213.5" y="95.5" width="100" height="100" as="geometry">
            <mxPoint x="872.5797160369088" y="438.50434075570956" as="sourcePoint" />
            <mxPoint x="-113.5" y="95.5" as="targetPoint" />
          </mxGeometry>
        </mxCell>
        <mxCell id="1400" value="" style="edgeStyle=none;endArrow=none;strokeWidth=3;strokeColor=#F5AF58;html=1;" parent="1" source="1357" target="1388" edge="1">
          <mxGeometry x="-80.13" y="241.25" width="100" height="100" as="geometry">
            <mxPoint x="975.2640466980107" y="543.0811228437101" as="sourcePoint" />
            <mxPoint x="19.870000000000005" y="241.25" as="targetPoint" />
          </mxGeometry>
        </mxCell>
        <mxCell id="1401" value="" style="edgeStyle=none;endArrow=none;strokeWidth=3;strokeColor=#F5AF58;html=1;" parent="1" source="1357" target="dRpMAYWNb-EyF7LgT5x5-1552" edge="1">
          <mxGeometry x="-80.13" y="241.25" width="100" height="100" as="geometry">
            <mxPoint x="966.503881078056" y="505.1754873541702" as="sourcePoint" />
            <mxPoint x="749.9526446280992" y="707.75" as="targetPoint" />
          </mxGeometry>
        </mxCell>
        <mxCell id="1402" value="" style="edgeStyle=none;endArrow=none;strokeWidth=3;strokeColor=#F5AF58;html=1;" parent="1" source="1351" target="1390" edge="1">
          <mxGeometry x="-213.5" y="95.5" width="100" height="100" as="geometry">
            <mxPoint x="838.6448372144437" y="319.2149457381481" as="sourcePoint" />
            <mxPoint x="-113.5" y="95.5" as="targetPoint" />
          </mxGeometry>
        </mxCell>
        <mxCell id="1403" value="" style="edgeStyle=none;endArrow=none;strokeWidth=3;strokeColor=#F5AF58;html=1;" parent="1" source="1390" target="1391" edge="1">
          <mxGeometry x="-254.25" y="155" width="100" height="100" as="geometry">
            <mxPoint x="819.1645285967604" y="341.4111351060126" as="sourcePoint" />
            <mxPoint x="-154.25" y="155" as="targetPoint" />
          </mxGeometry>
        </mxCell>
        <mxCell id="1407" value="" style="edgeStyle=none;endArrow=none;strokeWidth=3;strokeColor=#F5AF58;html=1;" parent="1" source="1351" target="1395" edge="1">
          <mxGeometry x="-183.5" y="95.5" width="100" height="100" as="geometry">
            <mxPoint x="-183.5" y="195.5" as="sourcePoint" />
            <mxPoint x="-83.5" y="95.5" as="targetPoint" />
          </mxGeometry>
        </mxCell>
        <mxCell id="1408" value="" style="edgeStyle=none;endArrow=none;strokeWidth=3;strokeColor=#F5AF58;html=1;" parent="1" source="1351" target="1396" edge="1">
          <mxGeometry x="281.09" y="135.5" width="100" height="100" as="geometry">
            <mxPoint x="770" y="320" as="sourcePoint" />
            <mxPoint x="381.09" y="135.5" as="targetPoint" />
          </mxGeometry>
        </mxCell>
        <mxCell id="1409" value="" style="edgeStyle=none;endArrow=none;strokeWidth=3;strokeColor=#F5AF58;html=1;" parent="1" source="1396" target="1397" edge="1">
          <mxGeometry x="196.15999999999997" y="-83" width="100" height="100" as="geometry">
            <mxPoint x="196.15999999999997" y="17" as="sourcePoint" />
            <mxPoint x="296.15999999999997" y="-83" as="targetPoint" />
          </mxGeometry>
        </mxCell>
        <mxCell id="1410" value="" style="edgeStyle=none;endArrow=none;strokeWidth=3;strokeColor=#F5AF58;html=1;" parent="1" source="1396" target="1398" edge="1">
          <mxGeometry x="210.74999999999997" y="-45.5" width="100" height="100" as="geometry">
            <mxPoint x="1869.9999999999998" y="229.44301935836916" as="sourcePoint" />
            <mxPoint x="310.74999999999994" y="-45.5" as="targetPoint" />
          </mxGeometry>
        </mxCell>
        <mxCell id="vXRq4L5JsFHw3zMqs7hk-1594" value="" style="edgeStyle=none;orthogonalLoop=1;jettySize=auto;html=1;endArrow=none;strokeColor=#F08E81;strokeWidth=3;fontColor=#FFFFFF;" parent="1" source="vXRq4L5JsFHw3zMqs7hk-1587" target="vXRq4L5JsFHw3zMqs7hk-1593" edge="1">
          <mxGeometry relative="1" as="geometry" />
        </mxCell>
        <mxCell id="1411" value="Second-moment matrix" style="fillColor=#f08e81;strokeColor=none;strokeWidth=3;shadow=0;html=1;fontColor=#FFFFFF;rounded=1;" parent="1" vertex="1">
          <mxGeometry x="1952.4599999999998" y="1382.75" width="140.97" height="20" as="geometry" />
        </mxCell>
        <mxCell id="vXRq4L5JsFHw3zMqs7hk-1590" value="" style="edgeStyle=none;orthogonalLoop=1;jettySize=auto;html=1;endArrow=none;strokeColor=#F08E81;strokeWidth=3;fontColor=#FFFFFF;" parent="1" source="1412" target="vXRq4L5JsFHw3zMqs7hk-1589" edge="1">
          <mxGeometry relative="1" as="geometry" />
        </mxCell>
        <mxCell id="1412" value="Isotropic random vectors" style="fillColor=#f08e81;strokeColor=none;strokeWidth=3;shadow=0;html=1;fontColor=#FFFFFF;rounded=1;" parent="1" vertex="1">
          <mxGeometry x="2053.59" y="1495.75" width="150" height="20" as="geometry" />
        </mxCell>
        <mxCell id="vXRq4L5JsFHw3zMqs7hk-1543" value="" style="edgeStyle=none;orthogonalLoop=1;jettySize=auto;html=1;endArrow=none;strokeColor=#F08E81;strokeWidth=3;fontColor=#FFFFFF;" parent="1" source="vXRq4L5JsFHw3zMqs7hk-1558" target="vXRq4L5JsFHw3zMqs7hk-1542" edge="1">
          <mxGeometry relative="1" as="geometry" />
        </mxCell>
        <mxCell id="vXRq4L5JsFHw3zMqs7hk-1545" value="" style="edgeStyle=none;orthogonalLoop=1;jettySize=auto;html=1;endArrow=none;strokeColor=#F08E81;strokeWidth=3;fontColor=#FFFFFF;" parent="1" source="vXRq4L5JsFHw3zMqs7hk-1558" target="vXRq4L5JsFHw3zMqs7hk-1544" edge="1">
          <mxGeometry relative="1" as="geometry" />
        </mxCell>
        <mxCell id="vXRq4L5JsFHw3zMqs7hk-1549" value="" style="edgeStyle=none;orthogonalLoop=1;jettySize=auto;html=1;endArrow=none;strokeColor=#F08E81;strokeWidth=3;fontColor=#FFFFFF;" parent="1" source="1416" target="vXRq4L5JsFHw3zMqs7hk-1548" edge="1">
          <mxGeometry relative="1" as="geometry" />
        </mxCell>
        <mxCell id="1416" value="&lt;span style=&quot;font-family: monospace , monospace&quot;&gt;&lt;font style=&quot;font-size: 12px&quot;&gt;ɛ-&lt;/font&gt;&lt;/span&gt;&lt;font style=&quot;font-size: 12px&quot;&gt;nets&lt;/font&gt;" style="fillColor=#f08e81;strokeColor=none;strokeWidth=3;shadow=0;html=1;fontColor=#FFFFFF;rounded=1;" parent="1" vertex="1">
          <mxGeometry x="681.81" y="1036.25" width="60" height="20" as="geometry" />
        </mxCell>
        <mxCell id="vXRq4L5JsFHw3zMqs7hk-1565" value="" style="edgeStyle=none;orthogonalLoop=1;jettySize=auto;html=1;endArrow=none;strokeColor=#F08E81;strokeWidth=3;fontColor=#FFFFFF;" parent="1" source="vXRq4L5JsFHw3zMqs7hk-1560" target="vXRq4L5JsFHw3zMqs7hk-1564" edge="1">
          <mxGeometry relative="1" as="geometry" />
        </mxCell>
        <mxCell id="vXRq4L5JsFHw3zMqs7hk-1567" value="" style="edgeStyle=none;orthogonalLoop=1;jettySize=auto;html=1;endArrow=none;strokeColor=#F08E81;strokeWidth=3;fontColor=#FFFFFF;" parent="1" source="vXRq4L5JsFHw3zMqs7hk-1560" target="vXRq4L5JsFHw3zMqs7hk-1566" edge="1">
          <mxGeometry relative="1" as="geometry" />
        </mxCell>
        <mxCell id="1417" value="norm on a net" style="fillColor=#f08e81;strokeColor=none;strokeWidth=3;shadow=0;html=1;fontColor=#FFFFFF;rounded=1;" parent="1" vertex="1">
          <mxGeometry x="1557.28" y="867.25" width="120" height="20" as="geometry" />
        </mxCell>
        <mxCell id="vXRq4L5JsFHw3zMqs7hk-1574" value="" style="edgeStyle=none;orthogonalLoop=1;jettySize=auto;html=1;endArrow=none;strokeColor=#F08E81;strokeWidth=3;fontColor=#FFFFFF;" parent="1" source="vXRq4L5JsFHw3zMqs7hk-1570" target="vXRq4L5JsFHw3zMqs7hk-1573" edge="1">
          <mxGeometry relative="1" as="geometry" />
        </mxCell>
        <mxCell id="vXRq4L5JsFHw3zMqs7hk-1576" value="" style="edgeStyle=none;orthogonalLoop=1;jettySize=auto;html=1;endArrow=none;strokeColor=#F08E81;strokeWidth=3;fontColor=#FFFFFF;" parent="1" source="vXRq4L5JsFHw3zMqs7hk-1570" target="vXRq4L5JsFHw3zMqs7hk-1575" edge="1">
          <mxGeometry relative="1" as="geometry" />
        </mxCell>
        <mxCell id="1418" value="Courant-Fisher min-max-theorem" style="fillColor=#f08e81;strokeColor=none;strokeWidth=3;shadow=0;html=1;fontColor=#FFFFFF;rounded=1;" parent="1" vertex="1">
          <mxGeometry x="1803.59" y="1027" width="200" height="20" as="geometry" />
        </mxCell>
        <mxCell id="1420" value="Covariance matrix" style="fillColor=#f08e81;strokeColor=none;strokeWidth=3;shadow=0;html=1;fontColor=#FFFFFF;rounded=1;" parent="1" vertex="1">
          <mxGeometry x="2018.59" y="1425.75" width="120" height="20" as="geometry" />
        </mxCell>
        <mxCell id="vXRq4L5JsFHw3zMqs7hk-1585" value="" style="edgeStyle=none;orthogonalLoop=1;jettySize=auto;html=1;endArrow=none;strokeColor=#F08E81;strokeWidth=3;fontColor=#FFFFFF;" parent="1" source="vXRq4L5JsFHw3zMqs7hk-1581" target="vXRq4L5JsFHw3zMqs7hk-1584" edge="1">
          <mxGeometry relative="1" as="geometry" />
        </mxCell>
        <mxCell id="1421" value="expected adjacency matrix" style="fillColor=#f08e81;strokeColor=none;strokeWidth=3;shadow=0;html=1;fontColor=#FFFFFF;rounded=1;" parent="1" vertex="1">
          <mxGeometry x="1823.76" y="1322.5" width="159.03" height="20" as="geometry" />
        </mxCell>
        <mxCell id="1422" value="Stochastic block model" style="fillColor=#f08e81;strokeColor=none;strokeWidth=3;shadow=0;html=1;fontColor=#FFFFFF;rounded=1;" parent="1" vertex="1">
          <mxGeometry x="1660.4099999999999" y="1210" width="143.47" height="20" as="geometry" />
        </mxCell>
        <mxCell id="1423" value="" style="edgeStyle=none;endArrow=none;strokeWidth=3;strokeColor=#F08E81;html=1;" parent="1" source="vXRq4L5JsFHw3zMqs7hk-1587" target="1411" edge="1">
          <mxGeometry x="7.619999999999997" y="985.62" width="100" height="100" as="geometry">
            <mxPoint x="7.619999999999997" y="1085.62" as="sourcePoint" />
            <mxPoint x="107.61999999999995" y="985.62" as="targetPoint" />
          </mxGeometry>
        </mxCell>
        <mxCell id="1427" value="" style="edgeStyle=none;endArrow=none;strokeWidth=3;strokeColor=#F08E81;html=1;" parent="1" source="vXRq4L5JsFHw3zMqs7hk-1558" target="1416" edge="1">
          <mxGeometry x="-798.19" y="911.25" width="100" height="100" as="geometry">
            <mxPoint x="-798.19" y="1011.25" as="sourcePoint" />
            <mxPoint x="-698.19" y="911.25" as="targetPoint" />
          </mxGeometry>
        </mxCell>
        <mxCell id="1428" value="" style="edgeStyle=none;endArrow=none;strokeWidth=3;strokeColor=#F08E81;html=1;" parent="1" source="vXRq4L5JsFHw3zMqs7hk-1560" target="1417" edge="1">
          <mxGeometry x="-112.72" y="935" width="100" height="100" as="geometry">
            <mxPoint x="-112.72" y="1035" as="sourcePoint" />
            <mxPoint x="-12.719999999999997" y="935" as="targetPoint" />
          </mxGeometry>
        </mxCell>
        <mxCell id="1429" value="" style="edgeStyle=none;endArrow=none;strokeWidth=3;strokeColor=#F08E81;html=1;" parent="1" source="vXRq4L5JsFHw3zMqs7hk-1570" target="1418" edge="1">
          <mxGeometry x="48.59" y="980.2500000000002" width="100" height="100" as="geometry">
            <mxPoint x="48.59" y="1080.25" as="sourcePoint" />
            <mxPoint x="148.58999999999997" y="980.2500000000002" as="targetPoint" />
          </mxGeometry>
        </mxCell>
        <mxCell id="1431" value="" style="edgeStyle=none;endArrow=none;strokeWidth=3;strokeColor=#F08E81;html=1;" parent="1" source="vXRq4L5JsFHw3zMqs7hk-1587" target="1412" edge="1">
          <mxGeometry x="7.619999999999997" y="985.62" width="100" height="100" as="geometry">
            <mxPoint x="7.619999999999997" y="1085.62" as="sourcePoint" />
            <mxPoint x="107.61999999999995" y="985.62" as="targetPoint" />
          </mxGeometry>
        </mxCell>
        <mxCell id="1432" value="" style="edgeStyle=none;endArrow=none;strokeWidth=3;strokeColor=#F08E81;html=1;" parent="1" source="vXRq4L5JsFHw3zMqs7hk-1581" target="1422" edge="1">
          <mxGeometry x="-143.62" y="864.5" width="100" height="100" as="geometry">
            <mxPoint x="-143.62" y="964.5" as="sourcePoint" />
            <mxPoint x="-43.62000000000003" y="864.5" as="targetPoint" />
          </mxGeometry>
        </mxCell>
        <mxCell id="1433" value="" style="edgeStyle=none;endArrow=none;strokeWidth=3;strokeColor=#F08E81;html=1;" parent="1" source="vXRq4L5JsFHw3zMqs7hk-1581" target="1421" edge="1">
          <mxGeometry x="-143.62" y="864.5" width="100" height="100" as="geometry">
            <mxPoint x="-143.62" y="964.5" as="sourcePoint" />
            <mxPoint x="-43.62000000000003" y="864.5" as="targetPoint" />
          </mxGeometry>
        </mxCell>
        <mxCell id="1434" value="" style="edgeStyle=none;endArrow=none;strokeWidth=3;strokeColor=#F08E81;html=1;" parent="1" source="vXRq4L5JsFHw3zMqs7hk-1587" target="1420" edge="1">
          <mxGeometry x="7.619999999999997" y="985.62" width="100" height="100" as="geometry">
            <mxPoint x="7.619999999999997" y="1085.62" as="sourcePoint" />
            <mxPoint x="107.61999999999995" y="985.62" as="targetPoint" />
          </mxGeometry>
        </mxCell>
        <mxCell id="1515" value="&lt;h1&gt;high-dimensional probability&lt;/h1&gt;" style="ellipse;whiteSpace=wrap;html=1;shadow=0;fontFamily=Helvetica;fontSize=30;fontColor=#2F5B7C;align=center;strokeColor=#2F5B7C;strokeWidth=6;fillColor=#FFFFFF;fontStyle=1;gradientColor=none;flipH=1;flipV=1;horizontal=1;verticalAlign=middle;rounded=1;" parent="1" vertex="1">
          <mxGeometry x="923" y="640" width="481" height="346.5" as="geometry" />
        </mxCell>
        <mxCell id="dRpMAYWNb-EyF7LgT5x5-1557" value="" style="edgeStyle=none;endArrow=none;strokeWidth=3;strokeColor=#F5AF58;html=1;" parent="1" source="dRpMAYWNb-EyF7LgT5x5-1555" target="1390" edge="1">
          <mxGeometry x="-244.25" y="165" width="100" height="100" as="geometry">
            <mxPoint x="523.73353909465" y="303.5" as="sourcePoint" />
            <mxPoint x="501.2973251028807" y="280" as="targetPoint" />
            <Array as="points" />
          </mxGeometry>
        </mxCell>
        <mxCell id="MSrnEf6_SX1GNY-UOXhY-1546" value="" style="edgeStyle=none;orthogonalLoop=1;jettySize=auto;html=1;endArrow=none;strokeColor=#F5AF58;strokeWidth=3;fontColor=#FFFFFF;" parent="1" source="dRpMAYWNb-EyF7LgT5x5-1580" target="MSrnEf6_SX1GNY-UOXhY-1544" edge="1">
          <mxGeometry relative="1" as="geometry">
            <mxPoint x="697.31" y="97" as="sourcePoint" />
            <mxPoint x="650.31" y="77" as="targetPoint" />
          </mxGeometry>
        </mxCell>
        <mxCell id="HAPoIs7WftZeYswxPthf-1546" value="" style="edgeStyle=none;orthogonalLoop=1;jettySize=auto;html=1;endArrow=none;strokeColor=#F5AF58;strokeWidth=3;" parent="1" source="HAPoIs7WftZeYswxPthf-1543" target="HAPoIs7WftZeYswxPthf-1545" edge="1">
          <mxGeometry relative="1" as="geometry" />
        </mxCell>
        <mxCell id="HAPoIs7WftZeYswxPthf-1548" value="" style="edgeStyle=none;orthogonalLoop=1;jettySize=auto;html=1;endArrow=none;strokeColor=#F5AF58;strokeWidth=3;" parent="1" source="HAPoIs7WftZeYswxPthf-1543" target="HAPoIs7WftZeYswxPthf-1547" edge="1">
          <mxGeometry relative="1" as="geometry" />
        </mxCell>
        <mxCell id="HAPoIs7WftZeYswxPthf-1543" value="&lt;i&gt;1.4.3 &lt;/i&gt;Examples" style="whiteSpace=wrap;html=1;shadow=0;fontColor=#FFFFFF;strokeColor=none;strokeWidth=3;fillColor=#f5af58;rounded=1;" parent="1" vertex="1">
          <mxGeometry x="2022.76" y="174.5" width="128.5" height="20" as="geometry" />
        </mxCell>
        <mxCell id="HAPoIs7WftZeYswxPthf-1545" value="Gaussian" style="whiteSpace=wrap;html=1;shadow=0;fontColor=#FFFFFF;strokeColor=none;strokeWidth=3;fillColor=#f5af58;rounded=1;" parent="1" vertex="1">
          <mxGeometry x="2022.76" y="134.5" width="73.99" height="20" as="geometry" />
        </mxCell>
        <mxCell id="HAPoIs7WftZeYswxPthf-1550" value="" style="edgeStyle=none;orthogonalLoop=1;jettySize=auto;html=1;endArrow=none;strokeColor=#F5AF58;strokeWidth=3;fontColor=#FFFFFF;" parent="1" source="HAPoIs7WftZeYswxPthf-1543" target="HAPoIs7WftZeYswxPthf-1549" edge="1">
          <mxGeometry relative="1" as="geometry">
            <mxPoint x="2160.51" y="192.5" as="sourcePoint" />
          </mxGeometry>
        </mxCell>
        <mxCell id="HAPoIs7WftZeYswxPthf-1547" value="Bernoulli" style="whiteSpace=wrap;html=1;shadow=0;fontColor=#FFFFFF;strokeColor=none;strokeWidth=3;fillColor=#f5af58;rounded=1;" parent="1" vertex="1">
          <mxGeometry x="2151.26" y="144.5" width="120" height="20" as="geometry" />
        </mxCell>
        <mxCell id="HAPoIs7WftZeYswxPthf-1549" value="Bounded" style="whiteSpace=wrap;html=1;shadow=0;fontColor=#FFFFFF;strokeColor=none;strokeWidth=3;fillColor=#f5af58;rounded=1;" parent="1" vertex="1">
          <mxGeometry x="2144.51" y="204.5" width="120" height="20" as="geometry" />
        </mxCell>
        <mxCell id="HAPoIs7WftZeYswxPthf-1555" value="&lt;i&gt;Prop 1.4.6&amp;nbsp;&lt;/i&gt;Sums of independent Sub-Gaussians" style="whiteSpace=wrap;html=1;shadow=0;fontColor=#FFFFFF;strokeColor=none;strokeWidth=3;fillColor=#f5af58;rounded=1;" parent="1" vertex="1">
          <mxGeometry x="1588.8400000000001" y="310.5" width="286.61" height="20" as="geometry" />
        </mxCell>
        <mxCell id="P-KclwKCgs5iUi40I747-1518" value="" style="edgeStyle=none;orthogonalLoop=1;jettySize=auto;html=1;endArrow=none;strokeColor=#F5AF58;strokeWidth=3;fontColor=#FFFFFF;" edge="1" parent="1" source="Jpfk0OrBiBI0WzyqMwra-1544" target="P-KclwKCgs5iUi40I747-1517">
          <mxGeometry relative="1" as="geometry" />
        </mxCell>
        <mxCell id="HAPoIs7WftZeYswxPthf-1559" value="&lt;i&gt;Prop 1.4.5 &lt;/i&gt;Centering" style="whiteSpace=wrap;html=1;shadow=0;fontColor=#FFFFFF;strokeColor=none;strokeWidth=3;fillColor=#f5af58;rounded=1;" parent="1" vertex="1">
          <mxGeometry x="1544.87" y="264" width="132.41" height="20" as="geometry" />
        </mxCell>
        <mxCell id="Jpfk0OrBiBI0WzyqMwra-1545" value="" style="edgeStyle=none;orthogonalLoop=1;jettySize=auto;html=1;endArrow=none;strokeColor=#F5AF58;strokeWidth=3;fontColor=#FFFFFF;" parent="1" source="1351" target="Jpfk0OrBiBI0WzyqMwra-1544" edge="1">
          <mxGeometry relative="1" as="geometry" />
        </mxCell>
        <mxCell id="HAPoIs7WftZeYswxPthf-1572" value="&lt;h3&gt;Section 1.5 Sub-Exponential distributions&lt;/h3&gt;" style="fillColor=#f5af58;strokeColor=none;strokeWidth=3;shadow=0;html=1;fontColor=#FFFFFF;rounded=1;" parent="1" vertex="1">
          <mxGeometry x="1758.98" y="539.75" width="310" height="50" as="geometry" />
        </mxCell>
        <mxCell id="HAPoIs7WftZeYswxPthf-1574" value="&lt;i&gt;Thm 1.4.7&amp;nbsp;&lt;/i&gt;General Hoeffding&#39;s inequality" style="whiteSpace=wrap;html=1;shadow=0;fontColor=#FFFFFF;strokeColor=none;strokeWidth=3;fillColor=#f5af58;rounded=1;" parent="1" vertex="1">
          <mxGeometry x="1901.02" y="47" width="228.98" height="20" as="geometry" />
        </mxCell>
        <mxCell id="HAPoIs7WftZeYswxPthf-1581" value="Sub-exponential properties" style="whiteSpace=wrap;html=1;shadow=0;fontColor=#FFFFFF;strokeColor=none;strokeWidth=3;fillColor=#f5af58;rounded=1;" parent="1" vertex="1">
          <mxGeometry x="1714.73" y="489.75" width="198.5" height="20" as="geometry" />
        </mxCell>
        <mxCell id="HAPoIs7WftZeYswxPthf-1590" value="" style="edgeStyle=none;orthogonalLoop=1;jettySize=auto;html=1;endArrow=none;strokeColor=#F5AF58;strokeWidth=3;fontColor=#FFFFFF;" parent="1" source="HAPoIs7WftZeYswxPthf-1585" target="HAPoIs7WftZeYswxPthf-1589" edge="1">
          <mxGeometry relative="1" as="geometry" />
        </mxCell>
        <mxCell id="HAPoIs7WftZeYswxPthf-1585" value="Sub-exponential random variables" style="fillColor=#f5af58;strokeColor=none;strokeWidth=3;shadow=0;html=1;fontColor=#FFFFFF;rounded=1;" parent="1" vertex="1">
          <mxGeometry x="1854.98" y="444.75" width="204" height="20" as="geometry" />
        </mxCell>
        <mxCell id="HAPoIs7WftZeYswxPthf-1587" value="&lt;i&gt;&amp;nbsp;Def 1.4.3&amp;nbsp;&lt;/i&gt;Sub-Gaussian norm" style="fillColor=#f5af58;strokeColor=none;strokeWidth=3;shadow=0;html=1;fontColor=#FFFFFF;rounded=1;" parent="1" vertex="1">
          <mxGeometry x="1831.15" y="270" width="172.44" height="20" as="geometry" />
        </mxCell>
        <mxCell id="HAPoIs7WftZeYswxPthf-1589" value="Sub-exponential norm" style="fillColor=#f5af58;strokeColor=none;strokeWidth=3;shadow=0;html=1;fontColor=#FFFFFF;rounded=1;" parent="1" vertex="1">
          <mxGeometry x="1981.48" y="474.75" width="143.5" height="20" as="geometry" />
        </mxCell>
        <mxCell id="HAPoIs7WftZeYswxPthf-1591" value="relation between sub-exponential and squared sub-gaussian" style="whiteSpace=wrap;html=1;shadow=0;fontColor=#FFFFFF;strokeColor=none;strokeWidth=3;fillColor=#f5af58;rounded=1;" parent="1" vertex="1">
          <mxGeometry x="1952.98" y="509.75" width="332.75" height="20" as="geometry" />
        </mxCell>
        <mxCell id="HAPoIs7WftZeYswxPthf-1598" value="" style="edgeStyle=none;orthogonalLoop=1;jettySize=auto;html=1;endArrow=none;strokeColor=#F5AF58;strokeWidth=3;fontColor=#FFFFFF;" parent="1" source="HAPoIs7WftZeYswxPthf-1595" target="HAPoIs7WftZeYswxPthf-1597" edge="1">
          <mxGeometry relative="1" as="geometry" />
        </mxCell>
        <mxCell id="HAPoIs7WftZeYswxPthf-1600" value="" style="edgeStyle=none;orthogonalLoop=1;jettySize=auto;html=1;endArrow=none;strokeColor=#F5AF58;strokeWidth=3;fontColor=#FFFFFF;" parent="1" source="HAPoIs7WftZeYswxPthf-1595" target="HAPoIs7WftZeYswxPthf-1599" edge="1">
          <mxGeometry relative="1" as="geometry" />
        </mxCell>
        <mxCell id="HAPoIs7WftZeYswxPthf-1595" value="Bernstein&#39;s inequality" style="whiteSpace=wrap;html=1;shadow=0;fontColor=#FFFFFF;strokeColor=none;strokeWidth=3;fillColor=#f5af58;rounded=1;" parent="1" vertex="1">
          <mxGeometry x="1911.8700000000001" y="615.5" width="135" height="20" as="geometry" />
        </mxCell>
        <mxCell id="HAPoIs7WftZeYswxPthf-1597" value="special case" style="whiteSpace=wrap;html=1;shadow=0;fontColor=#FFFFFF;strokeColor=none;strokeWidth=3;fillColor=#f5af58;rounded=1;" parent="1" vertex="1">
          <mxGeometry x="2032.91" y="660.25" width="135" height="20" as="geometry" />
        </mxCell>
        <mxCell id="HAPoIs7WftZeYswxPthf-1599" value="bounded distributions" style="whiteSpace=wrap;html=1;shadow=0;fontColor=#FFFFFF;strokeColor=none;strokeWidth=3;fillColor=#f5af58;rounded=1;" parent="1" vertex="1">
          <mxGeometry x="1837.48" y="669.75" width="135" height="20" as="geometry" />
        </mxCell>
        <mxCell id="Jpfk0OrBiBI0WzyqMwra-1544" value="&lt;h3&gt;Section 1.6 Johnson-Lindenstrauss lemma&lt;/h3&gt;" style="fillColor=#f5af58;strokeColor=none;strokeWidth=3;shadow=0;html=1;fontColor=#FFFFFF;rounded=1;" parent="1" vertex="1">
          <mxGeometry x="1437.47" y="615.5" width="310" height="50" as="geometry" />
        </mxCell>
        <mxCell id="vXRq4L5JsFHw3zMqs7hk-1547" value="" style="edgeStyle=none;orthogonalLoop=1;jettySize=auto;html=1;endArrow=none;strokeColor=#F08E81;strokeWidth=3;fontColor=#FFFFFF;" parent="1" source="vXRq4L5JsFHw3zMqs7hk-1542" target="vXRq4L5JsFHw3zMqs7hk-1546" edge="1">
          <mxGeometry relative="1" as="geometry" />
        </mxCell>
        <mxCell id="vXRq4L5JsFHw3zMqs7hk-1554" value="" style="edgeStyle=none;orthogonalLoop=1;jettySize=auto;html=1;endArrow=none;strokeColor=#F08E81;strokeWidth=3;fontColor=#FFFFFF;" parent="1" source="vXRq4L5JsFHw3zMqs7hk-1542" target="vXRq4L5JsFHw3zMqs7hk-1553" edge="1">
          <mxGeometry relative="1" as="geometry" />
        </mxCell>
        <mxCell id="vXRq4L5JsFHw3zMqs7hk-1563" value="" style="edgeStyle=none;orthogonalLoop=1;jettySize=auto;html=1;endArrow=none;strokeColor=#F08E81;strokeWidth=3;fontColor=#FFFFFF;" parent="1" source="vXRq4L5JsFHw3zMqs7hk-1542" target="vXRq4L5JsFHw3zMqs7hk-1562" edge="1">
          <mxGeometry relative="1" as="geometry" />
        </mxCell>
        <mxCell id="vXRq4L5JsFHw3zMqs7hk-1542" value="covering numbers" style="fillColor=#f08e81;strokeColor=none;strokeWidth=3;shadow=0;html=1;fontColor=#FFFFFF;rounded=1;" parent="1" vertex="1">
          <mxGeometry x="549.31" y="1096.25" width="115" height="20" as="geometry" />
        </mxCell>
        <mxCell id="vXRq4L5JsFHw3zMqs7hk-1544" value="packing numbers" style="fillColor=#f08e81;strokeColor=none;strokeWidth=3;shadow=0;html=1;fontColor=#FFFFFF;rounded=1;" parent="1" vertex="1">
          <mxGeometry x="546.81" y="1145.75" width="120" height="20" as="geometry" />
        </mxCell>
        <mxCell id="vXRq4L5JsFHw3zMqs7hk-1546" value="compactnes" style="fillColor=#f08e81;strokeColor=none;strokeWidth=3;shadow=0;html=1;fontColor=#FFFFFF;rounded=1;" parent="1" vertex="1">
          <mxGeometry x="541.81" y="1063.75" width="90" height="20" as="geometry" />
        </mxCell>
        <mxCell id="vXRq4L5JsFHw3zMqs7hk-1548" value="&lt;span style=&quot;font-family: monospace , monospace&quot;&gt;&lt;font style=&quot;font-size: 12px&quot;&gt;ɛ-&lt;/font&gt;&lt;/span&gt;&lt;font style=&quot;font-size: 12px&quot;&gt;nets from separated nets&lt;/font&gt;" style="fillColor=#f08e81;strokeColor=none;strokeWidth=3;shadow=0;html=1;fontColor=#FFFFFF;rounded=1;" parent="1" vertex="1">
          <mxGeometry x="581.81" y="996.25" width="160" height="20" as="geometry" />
        </mxCell>
        <mxCell id="vXRq4L5JsFHw3zMqs7hk-1552" value="" style="shape=flexArrow;endArrow=classic;startArrow=classic;html=1;strokeColor=#F08E81;strokeWidth=3;fontColor=#FFFFFF;width=0.8;startSize=1.216;startWidth=4.4799999999999995;endWidth=4.4799999999999995;endSize=1.216;" parent="1" source="vXRq4L5JsFHw3zMqs7hk-1544" target="vXRq4L5JsFHw3zMqs7hk-1542" edge="1">
          <mxGeometry width="50" height="50" relative="1" as="geometry">
            <mxPoint x="571.81" y="1159.75" as="sourcePoint" />
            <mxPoint x="621.81" y="1109.75" as="targetPoint" />
          </mxGeometry>
        </mxCell>
        <mxCell id="vXRq4L5JsFHw3zMqs7hk-1553" value="Volume" style="fillColor=#f08e81;strokeColor=none;strokeWidth=3;shadow=0;html=1;fontColor=#FFFFFF;rounded=1;" parent="1" vertex="1">
          <mxGeometry x="466.81" y="1146.25" width="57.5" height="24.25" as="geometry" />
        </mxCell>
        <mxCell id="vXRq4L5JsFHw3zMqs7hk-1561" value="" style="edgeStyle=none;orthogonalLoop=1;jettySize=auto;html=1;endArrow=none;strokeColor=#F08E81;strokeWidth=3;fontColor=#FFFFFF;" parent="1" source="1352" target="vXRq4L5JsFHw3zMqs7hk-1560" edge="1">
          <mxGeometry relative="1" as="geometry" />
        </mxCell>
        <mxCell id="vXRq4L5JsFHw3zMqs7hk-1598" value="" style="edgeStyle=none;orthogonalLoop=1;jettySize=auto;html=1;endArrow=none;strokeColor=#F08E81;strokeWidth=3;fontColor=#FFFFFF;" parent="1" source="1352" target="vXRq4L5JsFHw3zMqs7hk-1597" edge="1">
          <mxGeometry relative="1" as="geometry" />
        </mxCell>
        <mxCell id="nKjWOkiUqiFMKtEfcXU3-1551" value="" style="edgeStyle=none;orthogonalLoop=1;jettySize=auto;html=1;endArrow=none;strokeColor=#F08E81;strokeWidth=3;fontColor=#FFFFFF;" parent="1" source="1352" target="nKjWOkiUqiFMKtEfcXU3-1550" edge="1">
          <mxGeometry relative="1" as="geometry" />
        </mxCell>
        <mxCell id="vXRq4L5JsFHw3zMqs7hk-1558" value="&lt;h3&gt;Section 2.1&amp;nbsp;&lt;span style=&quot;font-family: monospace , monospace&quot;&gt;ɛ-&lt;/span&gt;&lt;font style=&quot;font-size: 14.04px&quot;&gt;nets, packing&amp;nbsp;&lt;/font&gt;and covering numbers&lt;/h3&gt;" style="strokeColor=none;strokeWidth=3;shadow=0;html=1;fontColor=#FFFFFF;rounded=1;fillColor=#F08E81;whiteSpace=wrap;" parent="1" vertex="1">
          <mxGeometry x="681.81" y="1066.25" width="200" height="50" as="geometry" />
        </mxCell>
        <mxCell id="vXRq4L5JsFHw3zMqs7hk-1571" value="" style="edgeStyle=none;orthogonalLoop=1;jettySize=auto;html=1;endArrow=none;strokeColor=#F08E81;strokeWidth=3;fontColor=#FFFFFF;" parent="1" source="1352" target="vXRq4L5JsFHw3zMqs7hk-1570" edge="1">
          <mxGeometry relative="1" as="geometry">
            <mxPoint x="1798.199690303955" y="1189.0007632416382" as="sourcePoint" />
          </mxGeometry>
        </mxCell>
        <mxCell id="vXRq4L5JsFHw3zMqs7hk-1560" value="&lt;h3&gt;Section 2.2 Bounding the norm of a sub-gaussian random matrix&lt;/h3&gt;" style="strokeColor=none;strokeWidth=3;shadow=0;html=1;fontColor=#FFFFFF;rounded=1;fillColor=#F08E81;whiteSpace=wrap;" parent="1" vertex="1">
          <mxGeometry x="1532.28" y="957.5" width="200" height="50" as="geometry" />
        </mxCell>
        <mxCell id="vXRq4L5JsFHw3zMqs7hk-1562" value="covering numbers" style="fillColor=#f08e81;strokeColor=none;strokeWidth=3;shadow=0;html=1;fontColor=#FFFFFF;rounded=1;" parent="1" vertex="1">
          <mxGeometry x="414.31" y="1101.25" width="115" height="20" as="geometry" />
        </mxCell>
        <mxCell id="vXRq4L5JsFHw3zMqs7hk-1564" value="operatornorm" style="fillColor=#f08e81;strokeColor=none;strokeWidth=3;shadow=0;html=1;fontColor=#FFFFFF;rounded=1;" parent="1" vertex="1">
          <mxGeometry x="1465.75" y="900" width="120" height="20" as="geometry" />
        </mxCell>
        <mxCell id="vXRq4L5JsFHw3zMqs7hk-1569" value="" style="edgeStyle=none;orthogonalLoop=1;jettySize=auto;html=1;endArrow=none;strokeColor=#F08E81;strokeWidth=3;fontColor=#FFFFFF;" parent="1" source="vXRq4L5JsFHw3zMqs7hk-1566" target="vXRq4L5JsFHw3zMqs7hk-1568" edge="1">
          <mxGeometry relative="1" as="geometry" />
        </mxCell>
        <mxCell id="vXRq4L5JsFHw3zMqs7hk-1566" value="norm of matrices with sub-gaussian entries" style="fillColor=#f08e81;strokeColor=none;strokeWidth=3;shadow=0;html=1;fontColor=#FFFFFF;rounded=1;" parent="1" vertex="1">
          <mxGeometry x="1667.28" y="900" width="250" height="20" as="geometry" />
        </mxCell>
        <mxCell id="vXRq4L5JsFHw3zMqs7hk-1568" value="symmetric sub-gaussian random matrices" style="fillColor=#f08e81;strokeColor=none;strokeWidth=3;shadow=0;html=1;fontColor=#FFFFFF;rounded=1;" parent="1" vertex="1">
          <mxGeometry x="1732.28" y="860" width="240" height="20" as="geometry" />
        </mxCell>
        <mxCell id="vXRq4L5JsFHw3zMqs7hk-1582" value="" style="edgeStyle=none;orthogonalLoop=1;jettySize=auto;html=1;endArrow=none;strokeColor=#F08E81;strokeWidth=3;fontColor=#FFFFFF;" parent="1" source="1352" target="vXRq4L5JsFHw3zMqs7hk-1581" edge="1">
          <mxGeometry relative="1" as="geometry">
            <mxPoint x="1859.9990600665917" y="1281.4011021017582" as="sourcePoint" />
          </mxGeometry>
        </mxCell>
        <mxCell id="vXRq4L5JsFHw3zMqs7hk-1570" value="&lt;h3&gt;Section 2.3 Pertubation of eigenvalues and -vectors&lt;/h3&gt;" style="strokeColor=none;strokeWidth=3;shadow=0;html=1;fontColor=#FFFFFF;rounded=1;fillColor=#F08E81;whiteSpace=wrap;" parent="1" vertex="1">
          <mxGeometry x="1838.59" y="1062.75" width="200" height="54.75" as="geometry" />
        </mxCell>
        <mxCell id="vXRq4L5JsFHw3zMqs7hk-1573" value="Weil&#39;s inequality" style="fillColor=#f08e81;strokeColor=none;strokeWidth=3;shadow=0;html=1;fontColor=#FFFFFF;rounded=1;" parent="1" vertex="1">
          <mxGeometry x="2038.5900000000001" y="1027" width="100" height="20" as="geometry" />
        </mxCell>
        <mxCell id="vXRq4L5JsFHw3zMqs7hk-1575" value="Davis-Kahan theorem" style="fillColor=#f08e81;strokeColor=none;strokeWidth=3;shadow=0;html=1;fontColor=#FFFFFF;rounded=1;" parent="1" vertex="1">
          <mxGeometry x="1953.5900000000001" y="1133" width="135" height="20" as="geometry" />
        </mxCell>
        <mxCell id="vXRq4L5JsFHw3zMqs7hk-1588" value="" style="edgeStyle=none;orthogonalLoop=1;jettySize=auto;html=1;endArrow=none;strokeColor=#F08E81;strokeWidth=3;fontColor=#FFFFFF;" parent="1" source="1352" target="vXRq4L5JsFHw3zMqs7hk-1587" edge="1">
          <mxGeometry relative="1" as="geometry" />
        </mxCell>
        <mxCell id="vXRq4L5JsFHw3zMqs7hk-1581" value="&lt;h3&gt;Section 2.4 Community Detection&lt;/h3&gt;" style="strokeColor=none;strokeWidth=3;shadow=0;html=1;fontColor=#FFFFFF;rounded=1;fillColor=#F08E81;whiteSpace=wrap;" parent="1" vertex="1">
          <mxGeometry x="1683.3899999999999" y="1248.5" width="155.97" height="54.75" as="geometry" />
        </mxCell>
        <mxCell id="vXRq4L5JsFHw3zMqs7hk-1600" value="" style="edgeStyle=none;orthogonalLoop=1;jettySize=auto;html=1;endArrow=none;strokeColor=#F08E81;strokeWidth=3;fontColor=#FFFFFF;" parent="1" source="vXRq4L5JsFHw3zMqs7hk-1597" target="vXRq4L5JsFHw3zMqs7hk-1599" edge="1">
          <mxGeometry relative="1" as="geometry" />
        </mxCell>
        <mxCell id="vXRq4L5JsFHw3zMqs7hk-1584" value="Spectral Clustering Algorithm" style="fillColor=#f08e81;strokeColor=none;strokeWidth=3;shadow=0;html=1;fontColor=#FFFFFF;rounded=1;" parent="1" vertex="1">
          <mxGeometry x="1623.9999999999998" y="1336.5" width="179.88" height="20" as="geometry" />
        </mxCell>
        <mxCell id="vXRq4L5JsFHw3zMqs7hk-1587" value="&lt;h3&gt;Section 2.5 Random vectors&lt;/h3&gt;" style="strokeColor=none;strokeWidth=3;shadow=0;html=1;fontColor=#FFFFFF;rounded=1;fillColor=#F08E81;whiteSpace=wrap;" parent="1" vertex="1">
          <mxGeometry x="1907.96" y="1461" width="119.6" height="54.75" as="geometry" />
        </mxCell>
        <mxCell id="vXRq4L5JsFHw3zMqs7hk-1592" value="" style="edgeStyle=none;orthogonalLoop=1;jettySize=auto;html=1;endArrow=none;strokeColor=#F08E81;strokeWidth=3;fontColor=#FFFFFF;" parent="1" source="1412" target="vXRq4L5JsFHw3zMqs7hk-1591" edge="1">
          <mxGeometry relative="1" as="geometry" />
        </mxCell>
        <mxCell id="vXRq4L5JsFHw3zMqs7hk-1589" value="Reduction to isotropy" style="fillColor=#f08e81;strokeColor=none;strokeWidth=3;shadow=0;html=1;fontColor=#FFFFFF;rounded=1;" parent="1" vertex="1">
          <mxGeometry x="2074.56" y="1461.25" width="150" height="20" as="geometry" />
        </mxCell>
        <mxCell id="vXRq4L5JsFHw3zMqs7hk-1591" value="Characterization of&amp;nbsp; isotropy" style="fillColor=#f08e81;strokeColor=none;strokeWidth=3;shadow=0;html=1;fontColor=#FFFFFF;rounded=1;" parent="1" vertex="1">
          <mxGeometry x="2114.56" y="1525.75" width="150" height="20" as="geometry" />
        </mxCell>
        <mxCell id="vXRq4L5JsFHw3zMqs7hk-1596" value="" style="edgeStyle=none;orthogonalLoop=1;jettySize=auto;html=1;endArrow=none;strokeColor=#F08E81;strokeWidth=3;fontColor=#FFFFFF;" parent="1" source="vXRq4L5JsFHw3zMqs7hk-1587" target="vXRq4L5JsFHw3zMqs7hk-1595" edge="1">
          <mxGeometry relative="1" as="geometry" />
        </mxCell>
        <mxCell id="vXRq4L5JsFHw3zMqs7hk-1593" value="Sub-gaussian random vectors" style="fillColor=#f08e81;strokeColor=none;strokeWidth=3;shadow=0;html=1;fontColor=#FFFFFF;rounded=1;" parent="1" vertex="1">
          <mxGeometry x="1954.62" y="1601.25" width="183.97" height="20" as="geometry" />
        </mxCell>
        <mxCell id="vXRq4L5JsFHw3zMqs7hk-1595" value="Sub-gaussian norm" style="fillColor=#f08e81;strokeColor=none;strokeWidth=3;shadow=0;html=1;fontColor=#FFFFFF;rounded=1;" parent="1" vertex="1">
          <mxGeometry x="2027.5599999999997" y="1561.25" width="126.03" height="20" as="geometry" />
        </mxCell>
        <mxCell id="vXRq4L5JsFHw3zMqs7hk-1597" value="&lt;h3&gt;Section 2.6 &lt;font style=&quot;font-size: 14.04px&quot;&gt;two-sided bounds for the singular values of sub-gaussian matrices&lt;/font&gt;&lt;/h3&gt;" style="strokeColor=none;strokeWidth=3;shadow=0;html=1;fontColor=#FFFFFF;rounded=1;fillColor=#F08E81;whiteSpace=wrap;" parent="1" vertex="1">
          <mxGeometry x="1474.22" y="1505" width="215.97" height="50" as="geometry" />
        </mxCell>
        <mxCell id="vXRq4L5JsFHw3zMqs7hk-1602" value="" style="edgeStyle=none;orthogonalLoop=1;jettySize=auto;html=1;endArrow=none;strokeColor=#F08E81;strokeWidth=3;fontColor=#FFFFFF;" parent="1" source="vXRq4L5JsFHw3zMqs7hk-1597" target="vXRq4L5JsFHw3zMqs7hk-1601" edge="1">
          <mxGeometry relative="1" as="geometry" />
        </mxCell>
        <mxCell id="vXRq4L5JsFHw3zMqs7hk-1599" value="singular values as bounds for distortions" style="fillColor=#f08e81;strokeColor=none;strokeWidth=3;shadow=0;html=1;fontColor=#FFFFFF;rounded=1;" parent="1" vertex="1">
          <mxGeometry x="1474.22" y="1601.25" width="255.97" height="20" as="geometry" />
        </mxCell>
        <mxCell id="nKjWOkiUqiFMKtEfcXU3-1545" value="" style="edgeStyle=none;orthogonalLoop=1;jettySize=auto;html=1;endArrow=none;strokeColor=#F08E81;strokeWidth=3;fontColor=#FFFFFF;" parent="1" source="vXRq4L5JsFHw3zMqs7hk-1597" target="nKjWOkiUqiFMKtEfcXU3-1544" edge="1">
          <mxGeometry relative="1" as="geometry" />
        </mxCell>
        <mxCell id="vXRq4L5JsFHw3zMqs7hk-1601" value="approximate isometries" style="fillColor=#f08e81;strokeColor=none;strokeWidth=3;shadow=0;html=1;fontColor=#FFFFFF;rounded=1;" parent="1" vertex="1">
          <mxGeometry x="1655.3600000000001" y="1576" width="165.97" height="20" as="geometry" />
        </mxCell>
        <mxCell id="nKjWOkiUqiFMKtEfcXU3-1547" value="" style="edgeStyle=none;orthogonalLoop=1;jettySize=auto;html=1;endArrow=none;strokeColor=#F08E81;strokeWidth=3;fontColor=#FFFFFF;" parent="1" edge="1">
          <mxGeometry relative="1" as="geometry">
            <mxPoint x="1890.0023248407651" y="1547" as="sourcePoint" />
            <mxPoint x="1895.7920700636942" y="1542.7500000000005" as="targetPoint" />
          </mxGeometry>
        </mxCell>
        <mxCell id="nKjWOkiUqiFMKtEfcXU3-1549" value="" style="edgeStyle=none;orthogonalLoop=1;jettySize=auto;html=1;endArrow=none;strokeColor=#F08E81;strokeWidth=3;fontColor=#FFFFFF;" parent="1" source="vXRq4L5JsFHw3zMqs7hk-1597" target="nKjWOkiUqiFMKtEfcXU3-1548" edge="1">
          <mxGeometry relative="1" as="geometry" />
        </mxCell>
        <mxCell id="nKjWOkiUqiFMKtEfcXU3-1544" value="two-sided bound on the spectrum" style="fillColor=#f08e81;strokeColor=none;strokeWidth=3;shadow=0;html=1;fontColor=#FFFFFF;rounded=1;" parent="1" vertex="1">
          <mxGeometry x="1534.25" y="1456" width="213.22" height="20" as="geometry" />
        </mxCell>
        <mxCell id="yN-F0TEQxxeYKhFmF640-1515" value="" style="edgeStyle=none;orthogonalLoop=1;jettySize=auto;html=1;endArrow=none;strokeColor=#F08E81;strokeWidth=3;fontColor=#FFFFFF;" parent="1" source="nKjWOkiUqiFMKtEfcXU3-1546" target="vXRq4L5JsFHw3zMqs7hk-1597" edge="1">
          <mxGeometry relative="1" as="geometry" />
        </mxCell>
        <mxCell id="nKjWOkiUqiFMKtEfcXU3-1546" value="integral identity" style="fillColor=#f08e81;strokeColor=none;strokeWidth=3;shadow=0;html=1;fontColor=#FFFFFF;rounded=1;" parent="1" vertex="1">
          <mxGeometry x="1714.73" y="1520" width="109.03" height="20" as="geometry" />
        </mxCell>
        <mxCell id="nKjWOkiUqiFMKtEfcXU3-1548" value="upper bound for an expected norm" style="fillColor=#f08e81;strokeColor=none;strokeWidth=3;shadow=0;html=1;fontColor=#FFFFFF;rounded=1;" parent="1" vertex="1">
          <mxGeometry x="1356.9700000000003" y="1565.13" width="213.22" height="20" as="geometry" />
        </mxCell>
        <mxCell id="nKjWOkiUqiFMKtEfcXU3-1557" value="" style="edgeStyle=none;orthogonalLoop=1;jettySize=auto;html=1;endArrow=none;strokeColor=#F08E81;strokeWidth=3;fontColor=#FFFFFF;" parent="1" source="1352" target="nKjWOkiUqiFMKtEfcXU3-1556" edge="1">
          <mxGeometry relative="1" as="geometry" />
        </mxCell>
        <mxCell id="nKjWOkiUqiFMKtEfcXU3-1550" value="&lt;h3&gt;Section 2.7 Covariance estimation and clustering&lt;/h3&gt;" style="strokeColor=none;strokeWidth=3;shadow=0;html=1;fontColor=#FFFFFF;rounded=1;fillColor=#F08E81;whiteSpace=wrap;" parent="1" vertex="1">
          <mxGeometry x="1063.38" y="1386" width="199.75" height="50" as="geometry" />
        </mxCell>
        <mxCell id="nKjWOkiUqiFMKtEfcXU3-1555" value="" style="edgeStyle=none;orthogonalLoop=1;jettySize=auto;html=1;endArrow=none;strokeColor=#F08E81;strokeWidth=3;fontColor=#FFFFFF;exitX=0.9;exitY=0.5;exitDx=0;exitDy=0;exitPerimeter=0;" parent="1" source="nKjWOkiUqiFMKtEfcXU3-1573" target="nKjWOkiUqiFMKtEfcXU3-1554" edge="1">
          <mxGeometry relative="1" as="geometry" />
        </mxCell>
        <mxCell id="nKjWOkiUqiFMKtEfcXU3-1563" value="" style="edgeStyle=none;orthogonalLoop=1;jettySize=auto;html=1;endArrow=none;strokeColor=#F08E81;strokeWidth=3;fontColor=#FFFFFF;" parent="1" source="nKjWOkiUqiFMKtEfcXU3-1573" target="nKjWOkiUqiFMKtEfcXU3-1562" edge="1">
          <mxGeometry relative="1" as="geometry" />
        </mxCell>
        <mxCell id="nKjWOkiUqiFMKtEfcXU3-1580" value="" style="edgeStyle=none;orthogonalLoop=1;jettySize=auto;html=1;endArrow=none;strokeColor=#F08E81;strokeWidth=3;fontColor=#FFFFFF;" parent="1" source="nKjWOkiUqiFMKtEfcXU3-1576" target="nKjWOkiUqiFMKtEfcXU3-1579" edge="1">
          <mxGeometry relative="1" as="geometry" />
        </mxCell>
        <mxCell id="nKjWOkiUqiFMKtEfcXU3-1554" value="sample complexity" style="fillColor=#f08e81;strokeColor=none;strokeWidth=3;shadow=0;html=1;fontColor=#FFFFFF;rounded=1;" parent="1" vertex="1">
          <mxGeometry x="1153.75" y="1515.75" width="123.75" height="20" as="geometry" />
        </mxCell>
        <mxCell id="nKjWOkiUqiFMKtEfcXU3-1602" value="" style="edgeStyle=none;orthogonalLoop=1;jettySize=auto;html=1;endArrow=none;strokeColor=#F08E81;strokeWidth=3;fontColor=#FFFFFF;" parent="1" source="1352" target="nKjWOkiUqiFMKtEfcXU3-1601" edge="1">
          <mxGeometry relative="1" as="geometry" />
        </mxCell>
        <mxCell id="nKjWOkiUqiFMKtEfcXU3-1556" value="&lt;h3&gt;Section 2.8 (Sketch of) the proof of the Matrix Bernstein inequality&lt;/h3&gt;" style="strokeColor=none;strokeWidth=3;shadow=0;html=1;fontColor=#FFFFFF;rounded=1;fillColor=#F08E81;whiteSpace=wrap;" parent="1" vertex="1">
          <mxGeometry x="476.31" y="1390" width="175.5" height="50" as="geometry" />
        </mxCell>
        <mxCell id="nKjWOkiUqiFMKtEfcXU3-1565" value="" style="edgeStyle=none;orthogonalLoop=1;jettySize=auto;html=1;endArrow=none;strokeColor=#F08E81;strokeWidth=3;fontColor=#FFFFFF;" parent="1" source="nKjWOkiUqiFMKtEfcXU3-1562" target="nKjWOkiUqiFMKtEfcXU3-1564" edge="1">
          <mxGeometry relative="1" as="geometry" />
        </mxCell>
        <mxCell id="nKjWOkiUqiFMKtEfcXU3-1574" value="" style="edgeStyle=none;orthogonalLoop=1;jettySize=auto;html=1;endArrow=none;strokeColor=#F08E81;strokeWidth=3;fontColor=#FFFFFF;" parent="1" source="nKjWOkiUqiFMKtEfcXU3-1562" target="nKjWOkiUqiFMKtEfcXU3-1573" edge="1">
          <mxGeometry relative="1" as="geometry" />
        </mxCell>
        <mxCell id="nKjWOkiUqiFMKtEfcXU3-1562" value="clustering of point sets" style="whiteSpace=wrap;html=1;rounded=1;shadow=0;fontColor=#FFFFFF;strokeColor=none;strokeWidth=3;fillColor=#f08e81;" parent="1" vertex="1">
          <mxGeometry x="971.25" y="1515.75" width="140" height="20" as="geometry" />
        </mxCell>
        <mxCell id="nKjWOkiUqiFMKtEfcXU3-1567" value="" style="edgeStyle=none;orthogonalLoop=1;jettySize=auto;html=1;endArrow=none;strokeColor=#F08E81;strokeWidth=3;fontColor=#FFFFFF;" parent="1" source="nKjWOkiUqiFMKtEfcXU3-1550" target="nKjWOkiUqiFMKtEfcXU3-1566" edge="1">
          <mxGeometry relative="1" as="geometry" />
        </mxCell>
        <mxCell id="nKjWOkiUqiFMKtEfcXU3-1564" value="spectral clustering algorithm" style="whiteSpace=wrap;html=1;rounded=1;shadow=0;fontColor=#FFFFFF;strokeColor=none;strokeWidth=3;fillColor=#f08e81;" parent="1" vertex="1">
          <mxGeometry x="778" y="1515.75" width="171.5" height="20" as="geometry" />
        </mxCell>
        <mxCell id="nKjWOkiUqiFMKtEfcXU3-1569" value="" style="edgeStyle=none;orthogonalLoop=1;jettySize=auto;html=1;endArrow=none;strokeColor=#F08E81;strokeWidth=3;fontColor=#FFFFFF;" parent="1" source="nKjWOkiUqiFMKtEfcXU3-1566" target="nKjWOkiUqiFMKtEfcXU3-1568" edge="1">
          <mxGeometry relative="1" as="geometry" />
        </mxCell>
        <mxCell id="nKjWOkiUqiFMKtEfcXU3-1582" value="" style="edgeStyle=none;orthogonalLoop=1;jettySize=auto;html=1;endArrow=none;strokeColor=#F08E81;strokeWidth=3;fontColor=#FFFFFF;" parent="1" source="nKjWOkiUqiFMKtEfcXU3-1583" target="nKjWOkiUqiFMKtEfcXU3-1581" edge="1">
          <mxGeometry relative="1" as="geometry" />
        </mxCell>
        <mxCell id="nKjWOkiUqiFMKtEfcXU3-1566" value="Matrix Bernstein inequality" style="whiteSpace=wrap;html=1;rounded=1;shadow=0;fontColor=#FFFFFF;strokeColor=none;strokeWidth=3;fillColor=#f08e81;" parent="1" vertex="1">
          <mxGeometry x="872.25" y="1386" width="171.5" height="20" as="geometry" />
        </mxCell>
        <mxCell id="nKjWOkiUqiFMKtEfcXU3-1568" value="expectation" style="whiteSpace=wrap;html=1;rounded=1;shadow=0;fontColor=#FFFFFF;strokeColor=none;strokeWidth=3;fillColor=#f08e81;" parent="1" vertex="1">
          <mxGeometry x="928" y="1416" width="80" height="20" as="geometry" />
        </mxCell>
        <mxCell id="nKjWOkiUqiFMKtEfcXU3-1577" value="" style="edgeStyle=none;orthogonalLoop=1;jettySize=auto;html=1;endArrow=none;strokeColor=#F08E81;strokeWidth=3;fontColor=#FFFFFF;" parent="1" source="nKjWOkiUqiFMKtEfcXU3-1570" target="nKjWOkiUqiFMKtEfcXU3-1576" edge="1">
          <mxGeometry relative="1" as="geometry" />
        </mxCell>
        <mxCell id="nKjWOkiUqiFMKtEfcXU3-1570" value="Covariance estimation" style="fillColor=#f08e81;strokeColor=none;strokeWidth=3;shadow=0;html=1;fontColor=#FFFFFF;rounded=1;" parent="1" vertex="1">
          <mxGeometry x="1026.5" y="1456" width="148.5" height="20" as="geometry" />
        </mxCell>
        <mxCell id="nKjWOkiUqiFMKtEfcXU3-1572" value="" style="edgeStyle=none;orthogonalLoop=1;jettySize=auto;html=1;endArrow=none;strokeColor=#F08E81;strokeWidth=3;fontColor=#FFFFFF;" parent="1" source="nKjWOkiUqiFMKtEfcXU3-1550" target="nKjWOkiUqiFMKtEfcXU3-1570" edge="1">
          <mxGeometry relative="1" as="geometry">
            <mxPoint x="1056.5" y="1458.5" as="sourcePoint" />
            <mxPoint x="992.4192825112106" y="1507.25" as="targetPoint" />
          </mxGeometry>
        </mxCell>
        <mxCell id="nKjWOkiUqiFMKtEfcXU3-1573" value="with sub-gaussian random vectors" style="whiteSpace=wrap;html=1;rounded=1;shadow=0;fontColor=#FFFFFF;strokeColor=none;strokeWidth=3;fillColor=#f08e81;" parent="1" vertex="1">
          <mxGeometry x="996.2500000000001" y="1488.5" width="200" height="20" as="geometry" />
        </mxCell>
        <mxCell id="nKjWOkiUqiFMKtEfcXU3-1575" value="" style="edgeStyle=none;orthogonalLoop=1;jettySize=auto;html=1;endArrow=none;strokeColor=#F08E81;strokeWidth=3;fontColor=#FFFFFF;" parent="1" source="nKjWOkiUqiFMKtEfcXU3-1570" target="nKjWOkiUqiFMKtEfcXU3-1573" edge="1">
          <mxGeometry relative="1" as="geometry">
            <mxPoint x="994.7399999999999" y="1505.2432197627863" as="sourcePoint" />
            <mxPoint x="874.25" y="1518.2143046007404" as="targetPoint" />
          </mxGeometry>
        </mxCell>
        <mxCell id="nKjWOkiUqiFMKtEfcXU3-1576" value="with general random vectors" style="fillColor=#f08e81;strokeColor=none;strokeWidth=3;shadow=0;html=1;fontColor=#FFFFFF;rounded=1;" parent="1" vertex="1">
          <mxGeometry x="838" y="1456" width="167" height="20" as="geometry" />
        </mxCell>
        <mxCell id="nKjWOkiUqiFMKtEfcXU3-1579" value="sample complexity" style="fillColor=#f08e81;strokeColor=none;strokeWidth=3;shadow=0;html=1;fontColor=#FFFFFF;rounded=1;" parent="1" vertex="1">
          <mxGeometry x="778" y="1487.25" width="123.75" height="20" as="geometry" />
        </mxCell>
        <mxCell id="nKjWOkiUqiFMKtEfcXU3-1581" value="functions of matrices" style="whiteSpace=wrap;html=1;rounded=1;shadow=0;fontColor=#FFFFFF;strokeColor=none;strokeWidth=3;fillColor=#f08e81;" parent="1" vertex="1">
          <mxGeometry x="113.5" y="1327.5" width="171.5" height="20" as="geometry" />
        </mxCell>
        <mxCell id="nKjWOkiUqiFMKtEfcXU3-1586" value="" style="edgeStyle=none;orthogonalLoop=1;jettySize=auto;html=1;endArrow=none;strokeColor=#F08E81;strokeWidth=3;fontColor=#FFFFFF;" parent="1" source="nKjWOkiUqiFMKtEfcXU3-1581" target="nKjWOkiUqiFMKtEfcXU3-1585" edge="1">
          <mxGeometry relative="1" as="geometry" />
        </mxCell>
        <mxCell id="nKjWOkiUqiFMKtEfcXU3-1588" value="" style="edgeStyle=none;orthogonalLoop=1;jettySize=auto;html=1;endArrow=none;strokeColor=#F08E81;strokeWidth=3;fontColor=#FFFFFF;" parent="1" source="nKjWOkiUqiFMKtEfcXU3-1583" target="nKjWOkiUqiFMKtEfcXU3-1587" edge="1">
          <mxGeometry relative="1" as="geometry" />
        </mxCell>
        <mxCell id="nKjWOkiUqiFMKtEfcXU3-1590" value="" style="edgeStyle=none;orthogonalLoop=1;jettySize=auto;html=1;endArrow=none;strokeColor=#F08E81;strokeWidth=3;fontColor=#FFFFFF;" parent="1" source="nKjWOkiUqiFMKtEfcXU3-1583" target="nKjWOkiUqiFMKtEfcXU3-1589" edge="1">
          <mxGeometry relative="1" as="geometry" />
        </mxCell>
        <mxCell id="nKjWOkiUqiFMKtEfcXU3-1593" value="" style="edgeStyle=none;orthogonalLoop=1;jettySize=auto;html=1;endArrow=none;strokeColor=#F08E81;strokeWidth=3;fontColor=#FFFFFF;" parent="1" source="nKjWOkiUqiFMKtEfcXU3-1556" target="nKjWOkiUqiFMKtEfcXU3-1592" edge="1">
          <mxGeometry relative="1" as="geometry">
            <mxPoint x="575.1578787878789" y="1449" as="sourcePoint" />
          </mxGeometry>
        </mxCell>
        <mxCell id="nKjWOkiUqiFMKtEfcXU3-1583" value="matrix calculus (to treat matrices like scalars)" style="whiteSpace=wrap;html=1;rounded=1;shadow=0;fontColor=#FFFFFF;strokeColor=none;strokeWidth=3;fillColor=#f08e81;" parent="1" vertex="1">
          <mxGeometry x="192.44" y="1380" width="258.5" height="20" as="geometry" />
        </mxCell>
        <mxCell id="nKjWOkiUqiFMKtEfcXU3-1585" value="examples" style="whiteSpace=wrap;html=1;rounded=1;shadow=0;fontColor=#FFFFFF;strokeColor=none;strokeWidth=3;fillColor=#f08e81;" parent="1" vertex="1">
          <mxGeometry x="79.75" y="1291.25" width="84.25" height="20" as="geometry" />
        </mxCell>
        <mxCell id="nKjWOkiUqiFMKtEfcXU3-1587" value="positive-semidefinite order" style="whiteSpace=wrap;html=1;rounded=1;shadow=0;fontColor=#FFFFFF;strokeColor=none;strokeWidth=3;fillColor=#f08e81;" parent="1" vertex="1">
          <mxGeometry x="40" y="1434.5" width="258.5" height="20" as="geometry" />
        </mxCell>
        <mxCell id="nKjWOkiUqiFMKtEfcXU3-1589" value="more properties" style="whiteSpace=wrap;html=1;rounded=1;shadow=0;fontColor=#FFFFFF;strokeColor=none;strokeWidth=3;fillColor=#f08e81;" parent="1" vertex="1">
          <mxGeometry x="320.69" y="1420" width="130.25" height="20" as="geometry" />
        </mxCell>
        <mxCell id="nKjWOkiUqiFMKtEfcXU3-1595" value="" style="edgeStyle=none;orthogonalLoop=1;jettySize=auto;html=1;endArrow=none;strokeColor=#F08E81;strokeWidth=3;fontColor=#FFFFFF;" parent="1" source="nKjWOkiUqiFMKtEfcXU3-1592" target="nKjWOkiUqiFMKtEfcXU3-1594" edge="1">
          <mxGeometry relative="1" as="geometry" />
        </mxCell>
        <mxCell id="nKjWOkiUqiFMKtEfcXU3-1597" value="" style="edgeStyle=none;orthogonalLoop=1;jettySize=auto;html=1;endArrow=none;strokeColor=#F08E81;strokeWidth=3;fontColor=#FFFFFF;" parent="1" source="nKjWOkiUqiFMKtEfcXU3-1592" target="nKjWOkiUqiFMKtEfcXU3-1596" edge="1">
          <mxGeometry relative="1" as="geometry" />
        </mxCell>
        <mxCell id="nKjWOkiUqiFMKtEfcXU3-1598" value="" style="edgeStyle=none;orthogonalLoop=1;jettySize=auto;html=1;endArrow=none;strokeColor=#F08E81;strokeWidth=3;fontColor=#FFFFFF;" parent="1" source="nKjWOkiUqiFMKtEfcXU3-1592" target="nKjWOkiUqiFMKtEfcXU3-1596" edge="1">
          <mxGeometry relative="1" as="geometry" />
        </mxCell>
        <mxCell id="nKjWOkiUqiFMKtEfcXU3-1600" value="" style="edgeStyle=none;orthogonalLoop=1;jettySize=auto;html=1;endArrow=none;strokeColor=#F08E81;strokeWidth=3;fontColor=#FFFFFF;" parent="1" source="nKjWOkiUqiFMKtEfcXU3-1556" target="nKjWOkiUqiFMKtEfcXU3-1599" edge="1">
          <mxGeometry relative="1" as="geometry" />
        </mxCell>
        <mxCell id="nKjWOkiUqiFMKtEfcXU3-1592" value="Lieb&#39;s inequality" style="whiteSpace=wrap;html=1;rounded=1;shadow=0;fontColor=#FFFFFF;strokeColor=none;strokeWidth=3;fillColor=#f08e81;" parent="1" vertex="1">
          <mxGeometry x="549.25" y="1463.5" width="120" height="20" as="geometry" />
        </mxCell>
        <mxCell id="nKjWOkiUqiFMKtEfcXU3-1594" value="original" style="whiteSpace=wrap;html=1;rounded=1;shadow=0;fontColor=#FFFFFF;strokeColor=none;strokeWidth=3;fillColor=#f08e81;" parent="1" vertex="1">
          <mxGeometry x="495.00000000000006" y="1532" width="59.25" height="20" as="geometry" />
        </mxCell>
        <mxCell id="nKjWOkiUqiFMKtEfcXU3-1596" value="random matrices" style="whiteSpace=wrap;html=1;rounded=1;shadow=0;fontColor=#FFFFFF;strokeColor=none;strokeWidth=3;fillColor=#f08e81;" parent="1" vertex="1">
          <mxGeometry x="577.25" y="1523.5" width="120" height="20" as="geometry" />
        </mxCell>
        <mxCell id="nKjWOkiUqiFMKtEfcXU3-1599" value="moment generating function of symmetric mean-zero random matrix" style="whiteSpace=wrap;html=1;rounded=1;shadow=0;fontColor=#FFFFFF;strokeColor=none;strokeWidth=3;fillColor=#f08e81;" parent="1" vertex="1">
          <mxGeometry x="139.75" y="1480.5" width="374.25" height="20" as="geometry" />
        </mxCell>
        <mxCell id="nKjWOkiUqiFMKtEfcXU3-1601" value="&lt;h3&gt;Section 2.9 Connection between data science and functional analysis&lt;/h3&gt;" style="strokeColor=none;strokeWidth=3;shadow=0;html=1;fontColor=#FFFFFF;rounded=1;fillColor=#F08E81;whiteSpace=wrap;" parent="1" vertex="1">
          <mxGeometry x="500.81" y="1242.5" width="212" height="50" as="geometry" />
        </mxCell>
        <mxCell id="yN-F0TEQxxeYKhFmF640-1516" style="edgeStyle=none;orthogonalLoop=1;jettySize=auto;html=1;exitX=0.75;exitY=1;exitDx=0;exitDy=0;endArrow=none;strokeColor=#F08E81;strokeWidth=3;fontColor=#FFFFFF;" parent="1" source="nKjWOkiUqiFMKtEfcXU3-1546" target="nKjWOkiUqiFMKtEfcXU3-1546" edge="1">
          <mxGeometry relative="1" as="geometry" />
        </mxCell>
        <mxCell id="yN-F0TEQxxeYKhFmF640-1519" style="edgeStyle=none;orthogonalLoop=1;jettySize=auto;html=1;exitX=0.75;exitY=1;exitDx=0;exitDy=0;endArrow=none;strokeColor=#F08E81;strokeWidth=3;fontColor=#FFFFFF;" parent="1" source="dRpMAYWNb-EyF7LgT5x5-1555" target="dRpMAYWNb-EyF7LgT5x5-1555" edge="1">
          <mxGeometry relative="1" as="geometry" />
        </mxCell>
        <mxCell id="P-KclwKCgs5iUi40I747-1520" value="" style="edgeStyle=none;orthogonalLoop=1;jettySize=auto;html=1;endArrow=none;strokeColor=#F5AF58;strokeWidth=3;fontColor=#FFFFFF;" edge="1" parent="1" source="Jpfk0OrBiBI0WzyqMwra-1544" target="P-KclwKCgs5iUi40I747-1519">
          <mxGeometry relative="1" as="geometry" />
        </mxCell>
        <mxCell id="P-KclwKCgs5iUi40I747-1517" value="&lt;i&gt;Lemma 1.6.1&lt;/i&gt;" style="whiteSpace=wrap;html=1;shadow=0;fontColor=#FFFFFF;strokeColor=none;strokeWidth=3;fillColor=#f5af58;rounded=1;" vertex="1" parent="1">
          <mxGeometry x="1435.41" y="687.75" width="94.59" height="20" as="geometry" />
        </mxCell>
        <mxCell id="P-KclwKCgs5iUi40I747-1519" value="&lt;i&gt;Thm 1.6.2 &lt;/i&gt;Concetration of the norm" style="whiteSpace=wrap;html=1;shadow=0;fontColor=#FFFFFF;strokeColor=none;strokeWidth=3;fillColor=#f5af58;rounded=1;" vertex="1" parent="1">
          <mxGeometry x="1575.41" y="689.75" width="210" height="20" as="geometry" />
        </mxCell>
      </root>
    </mxGraphModel>
  </diagram>
</mxfile>
